<?xml version="1.0" standalone="no"?>
<!DOCTYPE svg PUBLIC "-//W3C//DTD SVG 20010904//EN"
 "http://www.w3.org/TR/2001/REC-SVG-20010904/DTD/svg10.dtd">
<svg version="1.0" xmlns="http://www.w3.org/2000/svg"
 width="1024.000000pt" height="1024.000000pt" viewBox="100 100 824.000000 824.000000"
 preserveAspectRatio="xMidYMid meet">
<metadata>
Created by potrace 1.14, written by Peter Selinger 2001-2017
</metadata>
<g transform="translate(0.000000,1024.000000) scale(0.100000,-0.100000)"
fill="#000000" stroke="none">
<path d="M4895 9133 c-1624 -101 -3022 -1165 -3548 -2699 -95 -278 -156 -548
-193 -859 -25 -209 -25 -680 0 -885 112 -922 483 -1706 1116 -2354 595 -609
1350 -1009 2175 -1151 263 -45 335 -50 690 -50 356 0 431 5 695 51 1654 283
2971 1600 3254 3254 46 264 51 339 51 695 0 355 -5 427 -50 690 -136 789 -512
1522 -1074 2099 -702 719 -1600 1135 -2596 1206 -129 9 -400 11 -520 3z m700
-1468 c72 -25 171 -73 185 -90 7 -8 17 -15 23 -15 27 0 217 -182 295 -282 20
-27 40 -48 44 -48 4 0 8 -7 8 -15 0 -8 3 -15 8 -15 4 -1 27 -27 52 -60 25 -33
50 -59 56 -60 6 0 21 19 34 43 61 112 106 180 183 282 62 82 161 165 252 210
22 11 42 23 45 26 3 3 16 8 30 11 14 3 52 13 85 22 88 24 254 22 341 -5 143
-43 253 -108 347 -206 43 -45 60 -68 104 -138 14 -22 48 -93 68 -140 44 -108
70 -364 47 -480 -22 -115 -68 -256 -84 -263 -5 -2 -8 -11 -8 -19 0 -42 -148
-244 -225 -308 -25 -20 -50 -41 -58 -48 -37 -34 -139 -83 -238 -113 -180 -55
-368 -27 -563 84 -52 30 -168 130 -220 190 -17 21 -34 39 -38 42 -10 8 -123
157 -161 212 -18 26 -38 48 -44 48 -7 0 -23 -21 -36 -47 -67 -138 -216 -319
-321 -390 -22 -15 -43 -31 -46 -34 -13 -18 -135 -71 -215 -94 -184 -53 -300
-53 -467 0 -155 50 -275 138 -354 259 -15 22 -35 53 -46 68 -10 15 -18 32 -18
38 0 6 -4 19 -10 30 -5 11 -15 29 -20 40 -12 23 -23 71 -46 205 -24 137 -3
377 47 525 35 106 121 248 193 320 68 68 76 74 146 118 78 48 135 74 215 97
33 9 65 19 70 21 6 2 73 2 150 0 99 -3 155 -9 190 -21z m-1425 -1604 c163 -43
262 -116 322 -239 32 -64 33 -71 33 -187 -1 -139 -16 -210 -74 -330 -178 -374
-716 -644 -1438 -720 -76 -8 -144 -15 -152 -15 -11 0 -13 -28 -9 -152 4 -132
9 -162 30 -220 71 -191 209 -321 413 -389 61 -21 88 -24 220 -24 172 0 240 14
371 75 115 53 197 111 290 206 l80 81 42 -36 42 -36 -88 -96 c-269 -297 -535
-462 -857 -531 -83 -17 -364 -17 -434 1 -348 89 -571 390 -606 816 -10 122 18
388 54 516 81 286 255 579 485 817 256 264 552 426 876 482 94 16 304 6 400
-19z m1488 -1635 c128 -82 206 -206 308 -488 21 -60 42 -108 45 -108 4 0 57
76 118 170 183 278 282 383 408 430 48 18 73 21 143 18 53 -3 97 -11 117 -21
106 -56 70 -243 -54 -276 -38 -11 -75 -7 -193 19 -69 16 -125 2 -174 -41 -32
-28 -99 -124 -250 -357 l-66 -103 16 -37 c9 -20 49 -129 89 -242 133 -372 145
-401 175 -445 69 -100 128 -119 211 -67 51 33 112 100 140 154 25 49 36 54 64
28 l23 -22 -91 -136 c-153 -231 -258 -316 -387 -316 -74 0 -112 16 -168 72
-57 57 -110 172 -208 449 -49 139 -92 253 -95 253 -4 0 -62 -87 -130 -192
-248 -388 -335 -493 -453 -549 -149 -71 -315 -35 -362 78 -22 51 -18 124 9
164 52 79 144 89 237 26 65 -44 102 -47 168 -13 87 45 143 114 341 420 l142
219 -66 184 c-125 348 -175 439 -278 510 -81 55 -112 60 -327 50 -33 -2 -35 0
-38 31 -2 17 0 32 5 33 4 0 121 29 258 64 138 35 258 64 268 64 9 1 34 -10 55
-23z"/>
<path d="M5100 7449 c-30 -10 -80 -38 -110 -62 -53 -42 -140 -154 -140 -180 0
-7 -4 -17 -10 -23 -14 -14 -40 -161 -40 -229 0 -110 29 -249 71 -342 10 -24
19 -47 19 -53 0 -5 5 -10 10 -10 6 0 10 -5 10 -11 0 -32 153 -192 211 -220
112 -54 110 -53 261 -57 131 -3 155 -1 215 18 91 29 143 52 143 62 0 4 4 8 10
8 38 0 191 130 280 239 67 81 66 80 29 142 -18 29 -37 59 -42 64 -4 6 -42 62
-83 125 -42 63 -82 120 -90 126 -8 6 -14 14 -14 18 0 7 -16 27 -111 136 -71
81 -182 171 -264 213 -114 59 -250 73 -355 36z"/>
<path d="M6886 7362 c-3 -5 -27 -12 -53 -14 -27 -3 -86 -23 -135 -47 -71 -33
-103 -57 -170 -124 -126 -126 -188 -208 -188 -248 0 -18 90 -173 110 -189 3
-3 19 -27 35 -55 86 -151 286 -375 398 -449 282 -185 589 -63 689 274 16 55
17 270 1 325 -6 22 -16 58 -21 80 -30 118 -101 238 -186 314 -16 14 -35 32
-42 39 -22 22 -132 72 -182 84 -62 14 -248 22 -256 10z"/>
<path d="M3660 5887 c-210 -72 -432 -322 -621 -700 -104 -206 -195 -437 -178
-448 36 -22 324 19 467 67 437 144 730 476 735 831 1 72 -2 88 -29 139 -63
124 -210 167 -374 111z"/>
</g>
</svg>
